<svg width="68" height="19" viewBox="0 0 68 19" fill="none" xmlns="http://www.w3.org/2000/svg">
<path d="M1.01136 15V3.36364H5.60227C6.48485 3.36364 7.23674 3.5322 7.85795 3.86932C8.47917 4.20265 8.95265 4.66667 9.27841 5.26136C9.60795 5.85227 9.77273 6.53409 9.77273 7.30682C9.77273 8.07955 9.60606 8.76136 9.27273 9.35227C8.93939 9.94318 8.45644 10.4034 7.82386 10.733C7.19508 11.0625 6.43371 11.2273 5.53977 11.2273H2.61364V9.25568H5.14205C5.61553 9.25568 6.00568 9.17424 6.3125 9.01136C6.62311 8.8447 6.85417 8.61553 7.00568 8.32386C7.16098 8.02841 7.23864 7.68939 7.23864 7.30682C7.23864 6.92045 7.16098 6.58333 7.00568 6.29545C6.85417 6.00379 6.62311 5.77841 6.3125 5.61932C6.00189 5.45644 5.60795 5.375 5.13068 5.375H3.47159V15H1.01136ZM15.1278 15.1705C14.2453 15.1705 13.482 14.983 12.8381 14.608C12.1979 14.2292 11.7036 13.7027 11.3551 13.0284C11.0066 12.3504 10.8324 11.5644 10.8324 10.6705C10.8324 9.76894 11.0066 8.98106 11.3551 8.30682C11.7036 7.62879 12.1979 7.10227 12.8381 6.72727C13.482 6.34848 14.2453 6.15909 15.1278 6.15909C16.0104 6.15909 16.7718 6.34848 17.4119 6.72727C18.0559 7.10227 18.5521 7.62879 18.9006 8.30682C19.2491 8.98106 19.4233 9.76894 19.4233 10.6705C19.4233 11.5644 19.2491 12.3504 18.9006 13.0284C18.5521 13.7027 18.0559 14.2292 17.4119 14.608C16.7718 14.983 16.0104 15.1705 15.1278 15.1705ZM15.1392 13.2955C15.5407 13.2955 15.8759 13.1818 16.1449 12.9545C16.4138 12.7235 16.6165 12.4091 16.7528 12.0114C16.893 11.6136 16.9631 11.161 16.9631 10.6534C16.9631 10.1458 16.893 9.69318 16.7528 9.29545C16.6165 8.89773 16.4138 8.58333 16.1449 8.35227C15.8759 8.12121 15.5407 8.00568 15.1392 8.00568C14.7339 8.00568 14.393 8.12121 14.1165 8.35227C13.8438 8.58333 13.6373 8.89773 13.4972 9.29545C13.3608 9.69318 13.2926 10.1458 13.2926 10.6534C13.2926 11.161 13.3608 11.6136 13.4972 12.0114C13.6373 12.4091 13.8438 12.7235 14.1165 12.9545C14.393 13.1818 14.7339 13.2955 15.1392 13.2955ZM20.9972 15V6.27273H23.3438V7.79545H23.4347C23.5938 7.25379 23.8608 6.8447 24.2358 6.56818C24.6108 6.28788 25.0426 6.14773 25.5312 6.14773C25.6525 6.14773 25.7831 6.1553 25.9233 6.17045C26.0634 6.18561 26.1866 6.20644 26.2926 6.23295V8.38068C26.179 8.34659 26.0218 8.31629 25.821 8.28977C25.6203 8.26326 25.4366 8.25 25.2699 8.25C24.9138 8.25 24.5956 8.32765 24.3153 8.48295C24.0388 8.63447 23.8191 8.84659 23.6562 9.11932C23.4972 9.39205 23.4176 9.70644 23.4176 10.0625V15H20.9972ZM32.6236 6.27273V8.09091H27.3679V6.27273H32.6236ZM28.5611 4.18182H30.9815V12.3182C30.9815 12.5417 31.0156 12.7159 31.0838 12.8409C31.152 12.9621 31.2467 13.0473 31.3679 13.0966C31.4929 13.1458 31.6368 13.1705 31.7997 13.1705C31.9134 13.1705 32.027 13.161 32.1406 13.142C32.2543 13.1193 32.3414 13.1023 32.402 13.0909L32.7827 14.892C32.6615 14.9299 32.491 14.9735 32.2713 15.0227C32.0516 15.0758 31.7846 15.108 31.4702 15.1193C30.8868 15.142 30.3755 15.0644 29.9361 14.8864C29.5005 14.7083 29.1615 14.4318 28.919 14.0568C28.6766 13.6818 28.5573 13.2083 28.5611 12.6364V4.18182ZM38.8935 6.27273V8.09091H33.5071V6.27273H38.8935ZM34.7401 15V5.64205C34.7401 5.00947 34.8632 4.48485 35.1094 4.06818C35.3594 3.65151 35.7003 3.33901 36.1321 3.13068C36.5639 2.92235 37.0545 2.81818 37.6037 2.81818C37.9749 2.81818 38.3139 2.84659 38.6207 2.90341C38.9313 2.96023 39.1624 3.01136 39.3139 3.05682L38.8821 4.875C38.7874 4.8447 38.67 4.81629 38.5298 4.78977C38.3935 4.76326 38.2533 4.75 38.1094 4.75C37.7533 4.75 37.5052 4.83333 37.3651 5C37.2249 5.16288 37.1548 5.39205 37.1548 5.6875V15H34.7401ZM44.0028 15.1705C43.1203 15.1705 42.357 14.983 41.7131 14.608C41.0729 14.2292 40.5786 13.7027 40.2301 13.0284C39.8816 12.3504 39.7074 11.5644 39.7074 10.6705C39.7074 9.76894 39.8816 8.98106 40.2301 8.30682C40.5786 7.62879 41.0729 7.10227 41.7131 6.72727C42.357 6.34848 43.1203 6.15909 44.0028 6.15909C44.8854 6.15909 45.6468 6.34848 46.2869 6.72727C46.9309 7.10227 47.4271 7.62879 47.7756 8.30682C48.1241 8.98106 48.2983 9.76894 48.2983 10.6705C48.2983 11.5644 48.1241 12.3504 47.7756 13.0284C47.4271 13.7027 46.9309 14.2292 46.2869 14.608C45.6468 14.983 44.8854 15.1705 44.0028 15.1705ZM44.0142 13.2955C44.4157 13.2955 44.7509 13.1818 45.0199 12.9545C45.2888 12.7235 45.4915 12.4091 45.6278 12.0114C45.768 11.6136 45.8381 11.161 45.8381 10.6534C45.8381 10.1458 45.768 9.69318 45.6278 9.29545C45.4915 8.89773 45.2888 8.58333 45.0199 8.35227C44.7509 8.12121 44.4157 8.00568 44.0142 8.00568C43.6089 8.00568 43.268 8.12121 42.9915 8.35227C42.7188 8.58333 42.5123 8.89773 42.3722 9.29545C42.2358 9.69318 42.1676 10.1458 42.1676 10.6534C42.1676 11.161 42.2358 11.6136 42.3722 12.0114C42.5123 12.4091 42.7188 12.7235 42.9915 12.9545C43.268 13.1818 43.6089 13.2955 44.0142 13.2955ZM52.2926 3.36364V15H49.8722V3.36364H52.2926ZM54.2315 15V6.27273H56.652V15H54.2315ZM55.4474 5.14773C55.0876 5.14773 54.7789 5.02841 54.5213 4.78977C54.2675 4.54735 54.1406 4.25758 54.1406 3.92045C54.1406 3.58712 54.2675 3.30114 54.5213 3.0625C54.7789 2.82008 55.0876 2.69886 55.4474 2.69886C55.8073 2.69886 56.1141 2.82008 56.3679 3.0625C56.6255 3.30114 56.7543 3.58712 56.7543 3.92045C56.7543 4.25758 56.6255 4.54735 56.3679 4.78977C56.1141 5.02841 55.8073 5.14773 55.4474 5.14773ZM62.5341 15.1705C61.6515 15.1705 60.8883 14.983 60.2443 14.608C59.6042 14.2292 59.1098 13.7027 58.7614 13.0284C58.4129 12.3504 58.2386 11.5644 58.2386 10.6705C58.2386 9.76894 58.4129 8.98106 58.7614 8.30682C59.1098 7.62879 59.6042 7.10227 60.2443 6.72727C60.8883 6.34848 61.6515 6.15909 62.5341 6.15909C63.4167 6.15909 64.178 6.34848 64.8182 6.72727C65.4621 7.10227 65.9583 7.62879 66.3068 8.30682C66.6553 8.98106 66.8295 9.76894 66.8295 10.6705C66.8295 11.5644 66.6553 12.3504 66.3068 13.0284C65.9583 13.7027 65.4621 14.2292 64.8182 14.608C64.178 14.983 63.4167 15.1705 62.5341 15.1705ZM62.5455 13.2955C62.947 13.2955 63.2822 13.1818 63.5511 12.9545C63.8201 12.7235 64.0227 12.4091 64.1591 12.0114C64.2992 11.6136 64.3693 11.161 64.3693 10.6534C64.3693 10.1458 64.2992 9.69318 64.1591 9.29545C64.0227 8.89773 63.8201 8.58333 63.5511 8.35227C63.2822 8.12121 62.947 8.00568 62.5455 8.00568C62.1402 8.00568 61.7992 8.12121 61.5227 8.35227C61.25 8.58333 61.0436 8.89773 60.9034 9.29545C60.767 9.69318 60.6989 10.1458 60.6989 10.6534C60.6989 11.161 60.767 11.6136 60.9034 12.0114C61.0436 12.4091 61.25 12.7235 61.5227 12.9545C61.7992 13.1818 62.1402 13.2955 62.5455 13.2955Z" fill="#242424"/>
</svg>
